<svg xmlns="http://www.w3.org/2000/svg" viewBox="0 0 419.5 595.3"><text transform="translate(81.362 553.542)" font-family="'Miriam'" font-size="54.284">Mentor Summit</text><circle fill="#FBBC05" cx="40.5" cy="538" r="23.2"/><path fill="#20A15D" d="M14.9 528.7c-1 2.9-1.6 6.1-1.6 9.4s.6 6.5 1.6 9.4L5.5 538l9.4-9.3zm51.2 18.8c1-2.9 1.6-6.1 1.6-9.4s-.6-6.5-1.6-9.4l9.4 9.4-9.4 9.4z"/><path fill="#FBBC05" d="M29 562.8H15.7v-13.4c2.6 6 7.5 10.7 13.3 13.4zm36.2-49.6v13.4c-2.8-5.9-7.4-10.7-13.4-13.4h13.4z"/><path d="M15.7 513.2H29c-5.9 2.8-10.7 7.4-13.4 13.4.1 0 .1-13.4.1-13.4zm49.5 36.4V563H51.9c5.9-2.9 10.6-7.6 13.3-13.4z" fill="#6285C4"/><g fill="#E0533F"><path d="M40.5 503l9.4 9.4c-2.9-1-6.1-1.6-9.4-1.6-3.2 0-6.5.6-9.4 1.6l9.4-9.4zm0 62.3c3.2 0 6.5-.6 9.4-1.6l-9.4 9.4-9.4-9.4c2.9 1.1 6 1.6 9.4 1.6z"/><path d="M40.5 510.7C25.3 510.7 13 523 13 538.2s12.3 27.5 27.5 27.5S68 553.4 68 538.2s-12.4-27.5-27.5-27.5zm0 52.7c-13.9 0-25.3-11.3-25.3-25.3 0-13.9 11.3-25.3 25.3-25.3s25.3 11.3 25.3 25.3-11.3 25.3-25.3 25.3z"/></g><path d="M37.1 547.5h2.7c0-.6.2-1 .3-1.5 1.2-5.7 2.7-11.4 3.9-17.2h-2.6c-1.4 6.1-2.8 12.4-4.3 18.7zm-10.4-8.8c2.8 2.2 5.4 4.3 8.3 6.5v-3c-1.6-1.2-3.2-2.7-5-3.9 1.6-1.3 3.2-2.7 5-3.9v-3c-2.8 2.2-5.4 4.3-8.2 6.4-.1 0-.1.4-.1.9zm27.2-1.4c-2.7-2-5.3-4.1-8-6.2v3c1.6 1.2 3.2 2.6 5 3.9-1.6 1.2-3.2 2.6-5 3.8v3c2.8-2.2 5.4-4.2 8.2-6.4 0-.3.3-.8-.2-1.1z" fill="#FFF"/></svg>