<svg width="1080" height="190" xmlns="http://www.w3.org/2000/svg">

 <g>
  <title>background</title>
  <rect fill="none" id="canvas_background" height="192" width="1082" y="-1" x="-1"/>
 </g>
 <g>
  <title>Layer 1</title>
  <g id="svg_1">
   <g id="svg_2">
    <path id="svg_3" d="m210,133.5l0,-92.4l18.4,0l21.8,65.4c1.8,5.4 3.3,10 4.4,13.7c1.2,-3.8 2.8,-8.8 4.9,-14.8l22.1,-64.3l16.6,0l0,92.4l-11.7,0l0,-77.3l-26.9,77.3l-11,0l-26.8,-78.6l0,78.6l-11.8,0z" fill="#757575"/>
    <path id="svg_4" d="m362.3,112l11.6,1.5c-3.9,14.4 -13.7,21.6 -29.4,21.6c-10.3,0 -18.2,-3.2 -23.9,-9.7c-5.4,-6.1 -8.1,-14.4 -8.1,-24.8c0,-10.4 2.6,-18.7 7.8,-25.1c5.6,-6.9 13.4,-10.4 23.5,-10.4c9.9,0 17.5,3.4 22.9,10.2c5,6.3 7.6,14.5 7.6,24.5c0,0.7 0,1.7 -0.1,3.1l-50,0c0.4,6.6 2.2,11.9 5.4,16c3.6,4.6 8.6,6.8 14.9,6.8c8.6,0.1 14.5,-4.5 17.8,-13.7zm-37.4,-18.4l37.5,0c-0.5,-5.6 -2,-9.8 -4.4,-12.7c-3.6,-4.3 -8.3,-6.5 -14.1,-6.5c-5.5,0 -10.1,1.8 -13.6,5.5c-3.2,3.6 -5,8.2 -5.4,13.7z" fill="#757575"/>
    <path id="svg_5" d="m388.2,133.5l0,-66.9l10.3,0l0,9.5c4.9,-7.3 12,-10.9 21.2,-10.9c8.7,0 15,2.6 18.7,7.8c1.7,2.4 2.8,5.2 3.5,8.4c0.4,2.1 0.6,5.7 0.6,11l0,41.2l-11.3,0l0,-40.7c0,-8.2 -2,-13.5 -6,-15.9c-2.2,-1.4 -4.9,-2 -7.9,-2c-11.9,0 -17.8,7.4 -17.8,22.1l0,36.6l-11.3,0l0,-0.2z" fill="#757575"/>
    <path id="svg_6" d="m484.8,123.4l1.7,10c-3.2,0.7 -6.1,1 -8.6,1c-7.5,0 -12.3,-2.4 -14.4,-7.1c-0.9,-2.1 -1.4,-6.6 -1.4,-13.4l0,-38.5l-8.3,0l0,-8.8l8.3,0l0,-16.5l11.3,-6.9l0,23.4l11.4,0l0,8.9l-11.4,0l0,39.1c0,3.3 0.3,5.5 0.8,6.7c0.9,1.7 2.8,2.6 5.6,2.6c1.3,0 2.9,-0.2 5,-0.5z" fill="#757575"/>
    <path id="svg_7" d="m491.6,100.1c0,-12.4 3.5,-21.6 10.4,-27.5c5.7,-4.9 12.7,-7.4 21,-7.4c9.9,0 17.6,3.2 23.3,9.7c5.4,6.2 8.1,14.3 8.1,24.3c0,15.6 -5.1,26.2 -15.2,31.8c-4.9,2.8 -10.3,4.1 -16.2,4.1c-10.2,0 -18,-3.3 -23.6,-10c-5.2,-6.3 -7.8,-14.6 -7.8,-25zm11.6,0c0,7.2 1.5,13.1 4.4,17.6c3.5,5.4 8.6,8.1 15.4,8.1c6.8,0 12,-2.8 15.5,-8.3c2.9,-4.6 4.3,-10.5 4.3,-17.8c0,-7 -1.5,-12.8 -4.5,-17.3c-3.5,-5.3 -8.6,-7.9 -15.2,-7.9c-6.8,0 -11.9,2.7 -15.4,8.1c-3,4.4 -4.5,10.3 -4.5,17.5z" fill="#757575"/>
    <path id="svg_8" d="m567.5,133.5l0,-66.9l10.2,0l0,10.2c4.3,-7.7 9.1,-11.6 14.5,-11.6c3.8,0 7.7,1.2 11.7,3.6l-3.9,10.5c-2.8,-1.6 -5.5,-2.5 -8.3,-2.5c-5.5,0 -9.1,2.8 -10.9,8.5c-1.3,4 -1.9,8.4 -1.9,13.3l0,35.1l-11.4,0l0,-0.2z" fill="#757575"/>
    <path id="svg_9" d="m647.7,103.8l11.4,-1c1.1,9 5.5,15.1 13.2,18.5c4.2,1.8 8.9,2.7 14.2,2.7c9.8,0 16.6,-2.6 20.4,-7.8c1.8,-2.4 2.7,-5.1 2.7,-7.9c0,-5.9 -3.6,-10.2 -10.9,-13c-2.9,-1.1 -8.7,-2.7 -17.4,-4.7c-7.5,-1.7 -13.1,-3.6 -17,-5.6c-8.7,-4.6 -13.1,-11.3 -13.1,-20.1c0,-5 1.4,-9.6 4.3,-13.6c2.8,-3.9 6.6,-6.8 11.3,-8.8c5.1,-2.1 10.8,-3.2 17,-3.2c14.4,0 24.4,4.3 30.2,13c2.8,4.3 4.3,9.2 4.5,14.6l-11.6,0.9c-1.3,-11.8 -8.8,-17.6 -22.6,-17.6c-5.6,0 -10.3,0.9 -14,2.7c-4.9,2.4 -7.4,6.1 -7.4,11.1c0,4.7 2.7,8.3 8,10.7c2.2,1 6.9,2.3 14.1,4c10,2.2 16.8,4.2 20.5,5.9c10.5,4.8 15.8,12.3 15.8,22.6c0,5.3 -1.5,10.1 -4.6,14.4c-2.9,4.2 -6.9,7.4 -11.8,9.7c-5.3,2.4 -11.2,3.6 -17.9,3.6c-16.4,0 -27.9,-4.9 -34.3,-14.7c-3.1,-4.7 -4.8,-10.2 -5,-16.4z" fill="#757575"/>
    <path id="svg_10" d="m780.3,133.5l0,-9.8c-5.2,7.6 -12.3,11.3 -21.2,11.3c-8.6,0 -14.8,-2.7 -18.7,-8c-1.7,-2.3 -2.8,-5.1 -3.5,-8.4c-0.5,-2.3 -0.7,-5.8 -0.7,-10.6l0,-41.4l11.3,0l0,37.2c0,6 0.2,10 0.7,12c1.5,6.4 5.9,9.6 13.1,9.6c3.4,0 6.6,-0.8 9.5,-2.5c3.1,-1.8 5.2,-4.2 6.5,-7.2c1.2,-3 1.9,-7.4 1.9,-13.1l0,-36l11.3,0l0,66.9l-10.2,0z" fill="#757575"/>
    <path id="svg_11" d="m808.3,133.5l0,-66.9l10.2,0l0,9.4c4.7,-7.2 11.4,-10.9 20.3,-10.9c9.8,0 16.1,3.9 18.9,11.7c5.3,-7.8 12.2,-11.7 20.7,-11.7c13.8,0 20.7,7.5 20.7,22.5l0,45.9l-11.3,0l0,-42.2c0,-7.6 -1.7,-12.5 -5,-14.7c-2,-1.2 -4.2,-1.8 -6.9,-1.8c-10.9,0 -16.4,6.6 -16.4,19.8l0,38.9l-11.3,0l0,-43.5c0,-10.1 -3.9,-15.1 -11.8,-15.1c-7.3,0 -12.2,3.3 -14.7,9.9c-1.3,3.3 -1.9,7.9 -1.9,14l0,34.8l-11.5,0l0,-0.1z" fill="#757575"/>
    <path id="svg_12" d="m915.7,133.5l0,-66.9l10.2,0l0,9.4c4.7,-7.2 11.4,-10.9 20.3,-10.9c9.8,0 16.1,3.9 18.9,11.7c5.3,-7.8 12.2,-11.7 20.7,-11.7c13.8,0 20.7,7.5 20.7,22.5l0,45.9l-11.3,0l0,-42.2c0,-7.6 -1.7,-12.5 -5,-14.7c-2,-1.2 -4.2,-1.8 -6.9,-1.8c-10.9,0 -16.4,6.6 -16.4,19.8l0,38.9l-11.3,0l0,-43.5c0,-10.1 -3.9,-15.1 -11.8,-15.1c-7.3,0 -12.2,3.3 -14.7,9.9c-1.3,3.3 -1.9,7.9 -1.9,14l0,34.8l-11.5,0l0,-0.1z" fill="#757575"/>
    <path id="svg_13" d="m1023.3,54.1l0,-13l11.3,0l0,13l-11.3,0zm0,79.4l0,-66.9l11.3,0l0,66.9l-11.3,0z" fill="#757575"/>
    <path id="svg_14" d="m1076.7,123.4l1.7,10c-3.2,0.7 -6.1,1 -8.6,1c-7.5,0 -12.3,-2.4 -14.4,-7.1c-0.9,-2.1 -1.4,-6.6 -1.4,-13.4l0,-38.5l-8.3,0l0,-8.8l8.3,0l0,-16.5l11.3,-6.9l0,23.4l11.4,0l0,8.9l-11.4,0l0,39.1c0,3.3 0.3,5.5 0.8,6.7c0.9,1.7 2.8,2.6 5.6,2.6c1.3,0 3,-0.2 5,-0.5z" fill="#757575"/>
   </g>
   <g id="svg_15">
    <circle id="svg_16" r="61.299999" cy="92.5" cx="92.4" fill="#757575"/>
    <path id="svg_17" d="m24.8,67.9c-2.6,7.7 -4.2,16.1 -4.2,24.8s1.6,17.2 4.2,24.8l-24.8,-25.1l24.8,-24.5z" fill="#757575"/>
    <path id="svg_18" d="m160.1,117.6c2.6,-7.7 4.2,-16.1 4.2,-24.8c0,-8.7 -1.6,-17.2 -4.2,-24.8l24.8,24.8l-24.8,24.8z" fill="#757575"/>
    <g id="svg_19">
     <path id="svg_20" d="m62.1,158l-35.1,0l0,-35.4c6.8,15.8 19.7,28.3 35.1,35.4z" fill="#757575"/>
     <path id="svg_21" d="m157.7,26.9l0,35.4c-7.4,-15.6 -19.6,-28.3 -35.4,-35.4l35.4,0z" fill="#757575"/>
     <g id="svg_22">
      <path id="svg_23" d="m26.9,26.9l35.1,0c-15.6,7.4 -28.3,19.6 -35.4,35.4c0.3,0 0.3,-35.4 0.3,-35.4z" fill="#757575"/>
      <path id="svg_24" d="m157.7,123.1l0,35.4l-35.1,0c15.6,-7.6 28,-20.1 35.1,-35.4z" fill="#757575"/>
     </g>
    </g>
    <g id="svg_25">
     <path id="svg_26" d="m92.4,0l24.8,24.8c-7.7,-2.6 -16.1,-4.2 -24.8,-4.2c-8.5,0 -17.2,1.6 -24.8,4.2l24.8,-24.8z" fill="#757575"/>
     <path id="svg_27" d="m92.4,164.6c8.5,0 17.2,-1.6 24.8,-4.2l-24.8,24.8l-24.8,-24.8c7.7,2.9 15.9,4.2 24.8,4.2z" fill="#757575"/>
     <path id="svg_28" d="m92.4,20.3c-40.2,0 -72.7,32.5 -72.7,72.7c0,40.2 32.5,72.7 72.7,72.7s72.7,-32.5 72.7,-72.7c0,-40.2 -32.8,-72.7 -72.7,-72.7zm0,139.3c-36.7,0 -66.8,-29.9 -66.8,-66.8c0,-36.7 29.9,-66.8 66.8,-66.8s66.8,29.9 66.8,66.8c0.1,36.9 -29.8,66.8 -66.8,66.8z" fill="#757575"/>
    </g>
    <g id="svg_29">
     <path id="svg_30" d="m83.5,117.6c2.4,0 4.5,0 7.1,0c0,-1.6 0.5,-2.6 0.8,-4c3.2,-15.1 7.1,-30.1 10.3,-45.4c-2.4,0 -4.2,0 -6.9,0c-3.7,16.1 -7.4,32.7 -11.3,49.4z" fill="#FFFFFF"/>
     <path id="svg_31" d="m56,94.3c7.4,5.8 14.3,11.4 21.9,17.2c0,-2.6 0,-5.3 0,-7.9c-4.2,-3.2 -8.5,-7.1 -13.2,-10.3c4.2,-3.4 8.5,-7.1 13.2,-10.3c0,-2.6 0,-5.3 0,-7.9c-7.4,5.8 -14.3,11.4 -21.7,16.9c-0.2,-0.1 -0.2,1 -0.2,2.3z" fill="#FFFFFF"/>
     <path id="svg_32" d="m127.9,90.6c-7.1,-5.3 -14,-10.8 -21.1,-16.4c0,2.6 0,5.3 0,7.9c4.2,3.2 8.5,6.9 13.2,10.3c-4.2,3.2 -8.5,6.9 -13.2,10c0,2.6 0,5.3 0,7.9c7.4,-5.8 14.3,-11.1 21.7,-16.9c-0.1,-0.7 0.7,-2 -0.6,-2.8z" fill="#FFFFFF"/>
    </g>
   </g>
  </g>
 </g>
</svg>