<svg xmlns="http://www.w3.org/2000/svg" viewBox="0 233.3 419.5 128.7"><circle fill="#FBBC05" cx="70.8" cy="297.7" r="37.9"/><path fill="#20A15D" d="M28.8 282.2c-1.7 4.8-2.8 10-2.8 15.5s1 10.6 2.8 15.5l-15.5-15.5 15.5-15.5zm84 31c1.7-4.8 2.8-10 2.8-15.5 0-5.4-1-10.6-2.8-15.5l15.5 15.5-15.5 15.5z"/><path fill="#FBBC05" d="M52.1 338.4H30.2v-21.9c4.4 9.6 12.3 17.4 21.9 21.9zm59.4-81.3V279c-4.4-9.7-12.3-17.5-21.9-21.9h21.9z"/><path d="M30.2 257.1h21.9c-9.7 4.4-17.5 12.3-21.9 21.9v-21.9zm81.3 59.4v21.9H89.6c9.6-4.5 17.5-12.3 21.9-21.9z" fill="#6285C4"/><g fill="#E0533F"><path d="M70.8 240.2l15.5 15.5c-4.8-1.7-10-2.8-15.5-2.8s-10.6 1-15.5 2.8l15.5-15.5zm0 102.2c5.4 0 10.6-1 15.5-2.8l-15.5 15.5-15.5-15.5c4.9 1.9 10.1 2.8 15.5 2.8z"/><path d="M70.8 252.6c-24.9 0-45 20.2-45 45s20.2 45 45 45 45-20.2 45-45-20-45-45-45zm0 86.7c-23 0-41.6-18.6-41.6-41.5 0-23 18.6-41.6 41.6-41.6s41.6 18.6 41.6 41.6c.1 22.8-18.6 41.5-41.6 41.5z"/></g><path d="M65.3 313.1h4.2c.1-.9.4-1.7.5-2.6 2.1-9.4 4.3-18.8 6.4-28.2h-4.2c-2.2 10.2-4.4 20.6-6.9 30.8zm-17-14.4c4.4 3.5 9 7 13.4 10.4v-5c-2.7-2.1-5.4-4.2-8.2-6.4 2.7-2.2 5.4-4.2 8.2-6.4v-5c-4.5 3.5-8.9 7-13.4 10.4v2zm44.7-2.2c-4.3-3.4-8.7-6.8-13-10.1v5c2.7 2.1 5.4 4.2 8.1 6.4-2.7 2-5.3 4.2-8.1 6.2-.1 1.7 0 3.4 0 5.1 4.5-3.5 9-7 13.4-10.4-.2-.8.2-1.7-.4-2.2z" fill="#FFF"/><g font-family="'Miriam'"><text transform="translate(137.924 306.393)" font-size="72.478">Unofficial</text><text transform="translate(143.304 339.205)" font-size="37.601">Summit Activities</text></g></svg>