<svg width="760" height="260" xmlns="http://www.w3.org/2000/svg">

 <g>
  <title>background</title>
  <rect fill="none" id="canvas_background" height="262" width="762" y="-1" x="-1"/>
 </g>
 <g>
  <title>Layer 1</title>
  <g id="svg_1">
   <path id="svg_2" d="m288.099994,111.8l0,-99.8l19.9,0l23.6,70.7c2,5.9 3.6,10.8 4.8,14.8c1.3,-4.1 3,-9.5 5.3,-16l23.9,-69.5l17.8,0l0,99.8l-12.6,0l0,-83.6l-29.1,83.6l-11.9,0l-29,-85l0,85l-12.7,0z" fill="#FFFFFF"/>
   <path id="svg_3" d="m452.699994,88.5l12.6,1.6c-4.2,15.6 -14.8,23.4 -31.8,23.4c-11.1,0 -19.7,-3.5 -25.8,-10.4c-5.8,-6.6 -8.7,-15.5 -8.7,-26.8c0,-11.2 2.8,-20.3 8.4,-27.2c6.1,-7.5 14.5,-11.2 25.4,-11.2c10.6,0 18.9,3.7 24.7,11c5.4,6.8 8.2,15.6 8.2,26.5c0,0.8 0,1.9 -0.1,3.3l-54,0c0.4,7.1 2.4,12.9 5.8,17.3c3.9,4.9 9.3,7.4 16.1,7.4c9.2,0 15.6,-4.9 19.2,-14.9zm-40.4,-19.8l40.6,0c-0.6,-6.1 -2.1,-10.6 -4.7,-13.7c-3.9,-4.7 -9,-7 -15.2,-7c-6,0 -10.9,2 -14.7,6c-3.6,3.8 -5.6,8.7 -6,14.7z" fill="#FFFFFF"/>
   <path id="svg_4" d="m480.599994,111.8l0,-72.4l11.1,0l0,10.2c5.3,-7.9 13,-11.8 23,-11.8c9.4,0 16.2,2.8 20.3,8.5c1.8,2.6 3.1,5.6 3.8,9.1c0.5,2.2 0.7,6.2 0.7,11.9l0,44.5l-12.3,0l0,-44c0,-8.8 -2.2,-14.6 -6.5,-17.2c-2.4,-1.5 -5.3,-2.2 -8.6,-2.2c-12.8,0 -19.2,8 -19.2,23.9l0,39.6l-12.3,0l0,-0.1z" fill="#FFFFFF"/>
   <path id="svg_5" d="m585.099994,101l1.8,10.8c-3.5,0.8 -6.6,1.1 -9.3,1.1c-8.1,0 -13.3,-2.6 -15.6,-7.7c-1,-2.3 -1.5,-7.1 -1.5,-14.4l0,-41.6l-9,0l0,-9.6l9,0l0,-18l12.3,-7.4l0,25.3l12.3,0l0,9.6l-12.3,0l0,42.3c0,3.6 0.3,6 0.9,7.2c1,1.9 3,2.8 6.1,2.8c1.3,0 3,-0.1 5.3,-0.4z" fill="#FFFFFF"/>
   <path id="svg_6" d="m592.399994,75.7c0,-13.4 3.7,-23.3 11.2,-29.7c6.2,-5.3 13.8,-8 22.7,-8c10.6,0 19,3.5 25.2,10.5c5.8,6.7 8.7,15.4 8.7,26.3c0,16.9 -5.5,28.3 -16.4,34.4c-5.3,3 -11.2,4.5 -17.5,4.5c-11,0 -19.5,-3.6 -25.5,-10.8c-5.6,-7 -8.4,-16 -8.4,-27.2zm12.6,0c0,7.8 1.6,14.1 4.7,19c3.7,5.8 9.3,8.7 16.6,8.7c7.4,0 13,-3 16.7,-9c3.1,-5 4.6,-11.4 4.6,-19.2c0,-7.6 -1.6,-13.8 -4.9,-18.7c-3.8,-5.7 -9.3,-8.6 -16.5,-8.6c-7.3,0 -12.9,2.9 -16.6,8.7c-3.1,5 -4.6,11.3 -4.6,19.1z" fill="#FFFFFF"/>
   <path id="svg_7" d="m674.399994,111.8l0,-72.4l11,0l0,11c4.6,-8.4 9.8,-12.6 15.6,-12.6c4.1,0 8.3,1.3 12.6,3.9l-4.2,11.3c-3,-1.8 -6,-2.6 -9,-2.6c-5.9,0 -9.8,3.1 -11.7,9.2c-1.4,4.3 -2,9.1 -2,14.3l0,37.9l-12.3,0l0,0z" fill="#FFFFFF"/>
   <path id="svg_8" d="m283.999994,213.8l12.3,-1.1c1.2,9.7 5.9,16.4 14.3,20c4.6,2 9.7,2.9 15.3,2.9c10.6,0 18,-2.8 22,-8.4c1.9,-2.6 2.9,-5.5 2.9,-8.5c0,-6.4 -3.9,-11.1 -11.7,-14c-3.1,-1.2 -9.4,-2.9 -18.8,-5.1c-8.1,-1.9 -14.2,-3.9 -18.3,-6.1c-9.4,-5 -14.2,-12.2 -14.2,-21.7c0,-5.4 1.5,-10.3 4.6,-14.7c3,-4.2 7.1,-7.3 12.2,-9.5c5.5,-2.3 11.6,-3.4 18.4,-3.4c15.5,0 26.4,4.7 32.6,14.1c3,4.6 4.6,9.9 4.8,15.7l-12.6,1c-1.4,-12.7 -9.5,-19.1 -24.4,-19.1c-6.1,0 -11.1,1 -15.1,2.9c-5.3,2.6 -8,6.6 -8,12c0,5.1 2.9,8.9 8.6,11.6c2.4,1.1 7.5,2.5 15.2,4.3c10.8,2.4 18.2,4.5 22.1,6.4c11.4,5.2 17,13.3 17,24.4c0,5.7 -1.6,10.9 -4.9,15.6c-3.2,4.5 -7.4,8 -12.7,10.5c-5.7,2.6 -12.1,3.9 -19.3,3.9c-17.8,0 -30.1,-5.3 -37.1,-15.9c-3.2,-5.2 -5.1,-11.2 -5.2,-17.8z" fill="#FFFFFF"/>
   <path id="svg_9" d="m427.299994,245.8l0,-10.6c-5.6,8.2 -13.3,12.3 -22.9,12.3c-9.3,0 -16,-2.9 -20.2,-8.6c-1.8,-2.5 -3.1,-5.5 -3.8,-9.1c-0.5,-2.5 -0.8,-6.3 -0.8,-11.5l0,-44.8l12.3,0l0,40.2c0,6.5 0.3,10.8 0.8,13c1.6,6.9 6.3,10.4 14.2,10.4c3.7,0 7.1,-0.9 10.2,-2.7c3.3,-1.9 5.7,-4.5 7,-7.8s2,-8 2,-14.2l0,-38.8l12.3,0l0,72.4l-11.1,0l0,-0.2z" fill="#FFFFFF"/>
   <path id="svg_10" d="m457.499994,245.8l0,-72.4l11,0l0,10.2c5,-7.8 12.3,-11.7 21.9,-11.7c10.6,0 17.4,4.2 20.4,12.6c5.8,-8.4 13.2,-12.6 22.3,-12.6c14.9,0 22.4,8.1 22.4,24.3l0,49.6l-12.3,0l0,-45.6c0,-8.2 -1.8,-13.5 -5.4,-15.8c-2.1,-1.3 -4.6,-2 -7.4,-2c-11.8,0 -17.7,7.1 -17.7,21.4l0,42.1l-12.3,0l0,-47.1c0,-10.9 -4.3,-16.4 -12.8,-16.4c-7.9,0 -13.2,3.6 -15.9,10.7c-1.4,3.5 -2,8.6 -2,15.2l0,37.6l-12.2,-0.1l0,0z" fill="#FFFFFF"/>
   <path id="svg_11" d="m573.599994,245.8l0,-72.4l11,0l0,10.2c5,-7.8 12.3,-11.7 21.9,-11.7c10.6,0 17.4,4.2 20.4,12.6c5.8,-8.4 13.2,-12.6 22.3,-12.6c14.9,0 22.4,8.1 22.4,24.3l0,49.6l-12.3,0l0,-45.6c0,-8.2 -1.8,-13.5 -5.4,-15.8c-2.1,-1.3 -4.6,-2 -7.4,-2c-11.8,0 -17.7,7.1 -17.7,21.4l0,42.1l-12.3,0l0,-47.1c0,-10.9 -4.3,-16.4 -12.8,-16.4c-7.9,0 -13.2,3.6 -15.9,10.7c-1.4,3.5 -2,8.6 -2,15.2l0,37.6l-12.2,-0.1l0,0z" fill="#FFFFFF"/>
   <path id="svg_12" d="m689.899994,160l0,-14l12.3,0l0,14l-12.3,0zm0,85.8l0,-72.4l12.3,0l0,72.4l-12.3,0z" fill="#FFFFFF"/>
   <path id="svg_13" d="m747.599994,235l1.8,10.8c-3.5,0.8 -6.6,1.1 -9.3,1.1c-8.1,0 -13.3,-2.6 -15.6,-7.7c-1,-2.3 -1.5,-7.1 -1.5,-14.4l0,-41.6l-9,0l0,-9.6l9,0l0,-18l12.3,-7.4l0,25.3l12.3,0l0,9.6l-12.3,0l0,42.3c0,3.6 0.3,6 0.9,7.2c1,1.9 3,2.8 6.1,2.8c1.3,0 3.1,-0.1 5.3,-0.4z" fill="#FFFFFF"/>
  </g>
  <g id="svg_14">
   <path id="svg_15" d="m34.8,95.4c-3.8,11 -6.1,22.3 -6.1,34.8c0,12.1 2.3,24.2 6.1,34.8l-34.8,-35.2l34.8,-34.4z" fill="#FFFFFF"/>
   <path id="svg_16" d="m224,164.6c3.8,-11 6.1,-22.3 6.1,-34.8s-2.3,-24.2 -6.1,-34.8l34.8,34.8l-34.8,34.8z" fill="#FFFFFF"/>
   <g id="svg_17">
    <g id="svg_18">
     <path id="svg_19" d="m87,221l-49.6,0l0,-49.6c10.3,22.3 27.7,39.8 49.6,49.6z" fill="#FFFFFF"/>
     <path id="svg_20" d="m221,37.9l0,49.6c-10.2,-21.6 -27.2,-39.7 -49.6,-49.6l49.6,0l0,0z" fill="#FFFFFF"/>
     <g id="svg_21">
      <path id="svg_22" d="m37.4,37.9l49.6,0c-21.6,10.2 -39.7,27.2 -49.6,49.6c0,-0.1 0,-49.6 0,-49.6z" fill="#FFFFFF"/>
      <path id="svg_23" d="m221,172.6l0,49.6l-49.2,0c21.5,-11 38.9,-28.5 49.2,-49.6z" fill="#FFFFFF"/>
     </g>
    </g>
   </g>
   <g id="svg_24">
    <g id="svg_25">
     <path id="svg_26" d="m129.4,0l34.8,34.8c-11,-3.8 -22.3,-6.1 -34.8,-6.1c-12.1,0 -24.2,2.3 -34.8,6.1l34.8,-34.8z" fill="#FFFFFF"/>
     <path id="svg_27" d="m129.4,230.5c12.1,0 24.2,-2.3 34.8,-6.1l-34.8,34.8l-34.8,-34.8c10.6,4.2 22.3,6.1 34.8,6.1z" fill="#FFFFFF"/>
     <path id="svg_28" d="m129.4,28.4c-56,0 -101.8,45.8 -101.8,101.8s45.8,101.8 101.8,101.8s101.8,-45.8 101.8,-101.8s-46.2,-101.8 -101.8,-101.8zm0,195.2c-51.5,0 -93.8,-41.6 -93.8,-93.8c0,-51.5 41.6,-93.8 93.8,-93.8s93.5,42 93.5,93.8c-0.1,52.2 -42.1,93.8 -93.5,93.8z" fill="#FFFFFF"/>
    </g>
   </g>
   <path id="svg_29" d="m129.4,43.9c-47.2,0 -85.5,38.3 -85.5,85.5s38.3,85.5 85.5,85.5s85.5,-38.3 85.5,-85.5s-38.3,-85.5 -85.5,-85.5zm-20.1,71.9c-6.4,4.5 -12.5,9.5 -18.5,14.4c6.4,4.5 12.5,9.8 18.5,14.4c0,4.2 0,7.6 0,11.4c-10.6,-7.9 -20.4,-15.9 -30.6,-23.8c0,-1.9 0,-3 0.4,-4.2c10.2,-7.6 20.1,-15.5 30.3,-23.5c-0.1,4.1 -0.1,7.5 -0.1,11.3zm18.6,43.1c-0.4,1.9 -1.1,3.4 -1.1,5.7c-3.4,0 -6.4,0 -9.8,0c5.3,-23.1 10.2,-46.5 15.9,-69.2c3.4,0 6.1,0 9.5,0c-4.7,21.5 -10,42.3 -14.5,63.5zm51.8,-26.8c-10.2,7.9 -20.1,15.5 -30.3,23.5c0,-4.2 0,-7.6 0,-11.4c6.4,-4.5 12.5,-9.5 18.5,-14c-6.4,-4.9 -12.5,-9.8 -18.5,-14.4c0,-4.2 0,-7.6 0,-11.4c9.8,7.6 19.7,15.5 29.5,22.7c1.6,1.2 0.8,2.7 0.8,5z" fill="#FFFFFF"/>
  </g>
 </g>
</svg>