<svg width="839" height="200" xmlns="http://www.w3.org/2000/svg">
 <style>.st0{fill:#FFFFFF;}</style>

 <g>
  <title>background</title>
  <rect fill="none" id="canvas_background" height="402" width="582" y="-1" x="-1"/>
 </g>
 <g>
  <title>Layer 1</title>
  <g id="XMLID_261_">
   <path d="m32.3,0l-32.3,0l92.3,160l16.2,-28l-76.2,-132z" class="st0" id="XMLID_259_"/>
   <path d="m120.9,91l-52.6,-91l-32.2,0l74.3,128.8l10.5,-18.2c1.7,-2.8 2.8,-6.2 2.8,-9.8c-0.1,-3.6 -1.1,-6.9 -2.8,-9.8z" class="st0" id="XMLID_258_"/>
   <path d="m56.3,104.1l-55.4,95.9l32.3,0l39.3,-68l-16.2,-27.9z" class="st0" id="XMLID_257_"/>
   <path d="m74.3,135.3l-37.3,64.7l32.2,0l21.3,-36.8l-16.2,-27.9z" class="st0" id="XMLID_256_"/>
  </g>
  <text stroke="#ffffff" transform="matrix(3.1096996923052456,0,0,3.259917739951753,-520.8258395072413,-99.52370644122578) " xml:space="preserve" text-anchor="start" font-family="Helvetica, Arial, sans-serif" font-size="24" id="svg_5" y="54.5" x="227" stroke-width="0" fill="#ffffff">Google Summer of</text>
  <text font-weight="normal" stroke="#ffffff" transform="matrix(2.1900897756593216,0,0,3.408970296666496,-249.8641082555871,-239.23409268717526) " xml:space="preserve" text-anchor="start" font-family="Helvetica, Arial, sans-serif" font-size="24" id="svg_8" y="123.5" x="201" stroke-width="0" fill="#ffffff">Code Mentor Summit 2017</text>
 </g>
</svg>