<svg width="839" height="200" xmlns="http://www.w3.org/2000/svg">
 <style>.st0{fill:none;} .st1{fill:#FFC107;} .st2{fill:#0F9D58;} .st3{opacity:0.2;fill:#BF360C;enable-background:new ;} .st4{opacity:0.2;fill:#263238;enable-background:new ;} .st5{opacity:0.2;fill:#FFFFFF;enable-background:new ;} .st6{fill:url(#XMLID_126_);} .st7{fill:url(#XMLID_127_);} .st8{fill:#4285F4;} .st9{fill:#DB4437;} .st10{opacity:0.2;fill:#1A237E;enable-background:new ;} .st11{opacity:0.2;fill:#3E2723;enable-background:new ;} .st12{fill:url(#XMLID_128_);} .st13{fill:#FAFAFA;}</style>

 <g>
  <title>background</title>
  <rect fill="none" id="canvas_background" height="402" width="582" y="-1" x="-1"/>
 </g>
 <g>
  <title>Layer 1</title>
  <g id="XMLID_60_">
   <g id="XMLID_61_">
    <g id="XMLID_62_">
     <path d="m122.5,90.6l-52.4,-90.6l-70.1,0l57.8,100l-57.8,100l70.1,0l52.4,-90.6c3.3,-5.8 3.3,-13 0,-18.8z" class="st0" id="XMLID_106_"/>
     <path d="m92.4,159.8l-16.6,-28.7l-39.9,68.9l34.2,0l22.8,-39.4l-0.5,-0.8z" class="st1" id="XMLID_105_"/>
     <path d="m122.5,90.6l-52.4,-90.6l-70.1,0l57.8,100l-57.8,100l70.1,0l52.4,-90.6c3.3,-5.8 3.3,-13 0,-18.8z" class="st0" id="XMLID_104_"/>
     <path d="m57.8,100l18,31.1l-39.9,68.9l-35.9,0l57.8,-100z" class="st2" id="XMLID_103_"/>
     <path d="m122.5,90.6l-52.4,-90.6l-70.1,0l57.8,100l-57.8,100l70.1,0l52.4,-90.6c3.3,-5.8 3.3,-13 0,-18.8z" class="st0" id="XMLID_102_"/>
     <path d="m70.1,198.4l-33.3,0l-0.9,1.6l34.2,0l22.8,-39.4l-0.5,-0.8l-22.3,38.6z" class="st3" id="XMLID_101_"/>
     <path d="m122.5,90.6l-52.4,-90.6l-70.1,0l57.8,100l-57.8,100l70.1,0l52.4,-90.6c3.3,-5.8 3.3,-13 0,-18.8z" class="st0" id="XMLID_100_"/>
     <path d="m0.9,198.4l-0.9,1.6l35.9,0l0.9,-1.6l-35.9,0z" class="st4" id="XMLID_99_"/>
     <path d="m122.5,90.6l-52.4,-90.6l-70.1,0l57.8,100l-57.8,100l70.1,0l52.4,-90.6c3.3,-5.8 3.3,-13 0,-18.8z" class="st0" id="XMLID_98_"/>
     <path d="m0,200l0.9,0l57.4,-99.2l-0.5,-0.8l-57.8,100z" class="st5" id="XMLID_96_"/>
     <path d="m122.5,90.6l-52.4,-90.6l-70.1,0l57.8,100l-57.8,100l70.1,0l52.4,-90.6c3.3,-5.8 3.3,-13 0,-18.8z" class="st0" id="XMLID_94_"/>
     <path d="m92.9,160.6l-17.1,-29.5l-4.2,7.2l21.3,22.3z" class="st6" id="XMLID_92_"/>
     <path d="m122.5,90.6l-52.4,-90.6l-70.1,0l57.8,100l-57.8,100l70.1,0l52.4,-90.6c3.3,-5.8 3.3,-13 0,-18.8z" class="st0" id="XMLID_90_"/>
     <path d="m71.6,138.3l4.2,-7.2l-18,-31.1l-8.5,14.8l22.3,23.5z" class="st7" id="XMLID_89_"/>
     <path d="m122.5,90.6l-52.4,-90.6l-70.1,0l57.8,100l-57.8,100l70.1,0l52.4,-90.6c3.3,-5.8 3.3,-13 0,-18.8z" class="st0" id="XMLID_88_"/>
     <g id="XMLID_85_">
      <g id="XMLID_86_">
       <path d="m35.9,0l-35.9,0l92.9,160.6l17.9,-31.1l-74.9,-129.5z" class="st8" id="XMLID_87_"/>
      </g>
     </g>
     <path d="m122.5,90.6l-52.4,-90.6l-70.1,0l57.8,100l-57.8,100l70.1,0l52.4,-90.6c3.3,-5.8 3.3,-13 0,-18.8z" class="st0" id="XMLID_84_"/>
     <path d="m122.5,109.4c3.4,-5.8 3.4,-13 0,-18.8l-52.4,-90.6l-34.2,0l74.9,129.5l11.7,-20.1z" class="st9" id="XMLID_83_"/>
     <path d="m122.5,90.6l-52.4,-90.6l-70.1,0l57.8,100l-57.8,100l70.1,0l52.4,-90.6c3.3,-5.8 3.3,-13 0,-18.8z" class="st0" id="XMLID_82_"/>
     <path d="m110.8,129.5l-0.4,-0.8l-17.5,30.3l-92,-159l-0.9,0l92.9,160.6l17.9,-31.1z" class="st10" id="XMLID_71_"/>
     <path d="m122.5,90.6l-52.4,-90.6l-70.1,0l57.8,100l-57.8,100l70.1,0l52.4,-90.6c3.3,-5.8 3.3,-13 0,-18.8z" class="st0" id="XMLID_69_"/>
     <path d="m70.1,1.6l52.4,90.6c1.5,2.7 2.3,5.6 2.5,8.6c0.1,-3.5 -0.7,-7 -2.5,-10.2l-52.4,-90.6l-70.1,0l0.9,1.6l69.2,0z" class="st5" id="XMLID_67_"/>
     <path d="m122.5,90.6l-52.4,-90.6l-70.1,0l57.8,100l-57.8,100l70.1,0l52.4,-90.6c3.3,-5.8 3.3,-13 0,-18.8z" class="st0" id="XMLID_66_"/>
     <path d="m110.8,129.5l11.6,-20.1c1.8,-3.1 2.6,-6.7 2.5,-10.2c-0.1,3 -0.9,5.9 -2.5,8.6l-12.1,20.9l0.5,0.8z" class="st11" id="XMLID_65_"/>
     <path d="m122.5,90.6l-52.4,-90.6l-70.1,0l57.8,100l-57.8,100l70.1,0l52.4,-90.6c3.3,-5.8 3.3,-13 0,-18.8z" class="st0" id="XMLID_64_"/>
     <path d="m122.5,90.6l-52.4,-90.6l-70.1,0l57.8,100l-57.8,100l70.1,0l52.4,-90.6c3.3,-5.8 3.3,-13 0,-18.8z" class="st12" id="XMLID_63_"/>
    </g>
   </g>
  </g>
  <text stroke="#ffffff" transform="matrix(3.1096996923052456,0,0,3.259917739951753,-520.8258395072413,-99.52370644122578) " xml:space="preserve" text-anchor="start" font-family="Helvetica, Arial, sans-serif" font-size="24" id="svg_5" y="54.5" x="227" stroke-width="0" fill="#ffffff">Google Summer of</text>
  <text font-weight="normal" stroke="#ffffff" transform="matrix(2.1900897756593216,0,0,3.408970296666496,-249.8641082555871,-239.23409268717526) " xml:space="preserve" text-anchor="start" font-family="Helvetica, Arial, sans-serif" font-size="24" id="svg_8" y="123.5" x="201" stroke-width="0" fill="#ffffff">Code Mentor Summit 2017</text>
 </g>
</svg>