<svg width="1050" height="307" xmlns="http://www.w3.org/2000/svg">

 <g>
  <title>background</title>
  <rect fill="none" id="canvas_background" height="309" width="1052" y="-1" x="-1"/>
 </g>
 <g>
  <title>Layer 1</title>
  <g id="svg_1">
   <g id="svg_2">
    <circle id="svg_3" r="100.900002" cy="153.4" cx="153.2" fill="#FBBC05"/>
    <path id="svg_4" d="m41.2,112c-4.6,12.9 -7.5,26.8 -7.5,41.2s2.6,28.3 7.5,41.2l-41.2,-41.3l41.2,-41.1z" fill="#20A15D"/>
    <path id="svg_5" d="m265.2,194.6c4.6,-12.9 7.5,-26.8 7.5,-41.2c0,-14.4 -2.6,-28.3 -7.5,-41.2l41.2,41.2l-41.2,41.2z" fill="#20A15D"/>
    <g id="svg_6">
     <path id="svg_7" d="m103.3,261.8l-58.5,0l0,-58.4c11.9,25.7 32.7,46.5 58.5,58.4z" fill="#FBBC05"/>
     <path id="svg_8" d="m261.6,45l0,58.4c-11.8,-25.7 -32.7,-46.6 -58.4,-58.4l58.4,0z" fill="#FBBC05"/>
     <g id="svg_9">
      <path id="svg_10" d="m44.8,45l58.4,0c-25.7,11.8 -46.6,32.7 -58.4,58.4l0,-58.4z" fill="#6285C4"/>
      <path id="svg_11" d="m261.6,203.3l0,58.4l-58.4,0c25.7,-11.8 46.5,-32.6 58.4,-58.4z" fill="#6285C4"/>
     </g>
    </g>
    <g id="svg_12">
     <path id="svg_13" d="m153.2,0l41.2,41.2c-12.9,-4.6 -26.8,-7.5 -41.2,-7.5s-28.3,2.6 -41.2,7.5l41.2,-41.2z" fill="#E0533F"/>
     <path id="svg_14" d="m153.2,272.6c14.4,0 28.3,-2.6 41.2,-7.5l-41.2,41.2l-41.2,-41.2c12.9,4.9 26.8,7.5 41.2,7.5z" fill="#E0533F"/>
     <path id="svg_15" d="m153.2,33.2c-66.4,0 -120,53.8 -120,120s53.8,120 120,120s120,-53.8 120,-120s-53.6,-120 -120,-120zm0,230.9c-61.3,0 -111,-49.7 -111,-110.7c0,-61.3 49.7,-111 111,-111s111,49.7 111,111c0,61 -49.7,110.7 -111,110.7z" fill="#E0533F"/>
    </g>
    <g id="svg_16">
     <path id="svg_17" d="m138.5,194.3c3.9,0 7.7,0 11.3,0c0.3,-2.3 1,-4.6 1.3,-7c5.7,-25 11.6,-50.2 17,-75.2c-3.6,0 -7.2,0 -11.1,0c-6.1,27.4 -12,54.9 -18.5,82.2z" fill="#FFFFFF"/>
     <path id="svg_18" d="m93.2,156c11.8,9.3 23.9,18.5 35.8,27.8c0,-4.4 0,-9 0,-13.4c-7.2,-5.7 -14.4,-11.3 -21.9,-17c7.2,-5.9 14.4,-11.3 21.9,-17c0,-4.4 0,-9 0,-13.4c-12.1,9.3 -23.7,18.5 -35.8,27.8c0,1.6 0,3.4 0,5.2z" fill="#FFFFFF"/>
     <path id="svg_19" d="m212.2,150.1c-11.6,-9 -23.2,-18 -34.8,-27c0,4.4 0,9 0,13.4c7.2,5.7 14.4,11.3 21.6,17c-7.2,5.4 -14.2,11.1 -21.6,16.5c-0.3,4.6 0,9 0,13.6c12.1,-9.3 23.9,-18.5 35.8,-27.8c-0.5,-1.9 0.8,-4.5 -1,-5.7z" fill="#FFFFFF"/>
    </g>
   </g>
   <g id="svg_20">
    <path id="svg_21" d="m427.1,52l16.5,0l0,71.9c0,11.4 -1.1,20.4 -3.3,26.9c-3,8.9 -8.4,15.9 -16.3,20.9c-7.4,4.7 -17,7 -29.1,7c-23.1,0 -38,-7.8 -44.5,-23.5c-3.1,-7.6 -4.7,-18 -4.7,-31.2l0,-71.9l16.5,0l0,71.7c0,8.9 0.6,15.6 1.9,20.1c1.9,7.2 5.7,12.4 11.5,15.6c4.9,2.8 10.9,4.1 18,4.1c13.3,0 22.4,-3.4 27.3,-10.2c4.1,-5.7 6.2,-15.6 6.2,-29.7l0,-71.7z" fill="#FFFFFF"/>
    <path id="svg_22" d="m469,176.5l0,-90.2l13.9,0l0,12.7c6.7,-9.8 16.2,-14.7 28.6,-14.7c11.7,0 20.2,3.5 25.3,10.6c2.3,3.2 3.8,7 4.7,11.3c0.6,2.8 0.8,7.7 0.8,14.8l0,55.5l-15.3,0l0,-54.9c0,-11 -2.7,-18.2 -8.1,-21.4c-3,-1.8 -6.6,-2.7 -10.7,-2.7c-16,0 -24,9.9 -24,29.8l0,49.3l-15.2,0l0,-0.1z" fill="#FFFFFF"/>
    <path id="svg_23" d="m560.1,131.4c0,-16.7 4.7,-29.1 14,-37.1c7.7,-6.7 17.2,-10 28.3,-10c13.3,0 23.7,4.4 31.4,13.1c7.2,8.3 10.8,19.2 10.8,32.7c0,21 -6.8,35.3 -20.5,42.8c-6.7,3.7 -13.9,5.6 -21.8,5.6c-13.7,0 -24.3,-4.5 -31.8,-13.5c-6.9,-8.4 -10.4,-19.6 -10.4,-33.6zm15.7,0c0,9.7 2,17.6 5.9,23.7c4.7,7.3 11.6,10.9 20.7,10.9c9.2,0 16.2,-3.7 20.8,-11.2c3.9,-6.2 5.8,-14.2 5.8,-23.9c0,-9.5 -2,-17.3 -6.1,-23.4c-4.7,-7.1 -11.6,-10.7 -20.5,-10.7c-9.2,0 -16.1,3.6 -20.7,10.9c-4,6.1 -5.9,14 -5.9,23.7z" fill="#FFFFFF"/>
    <path id="svg_24" d="m666.1,176.5l0,-78.2l-13.5,0l0,-12l13.5,0l0,-9.5c0,-6.1 0.5,-10.6 1.6,-13.6c3.3,-8.9 11.1,-13.3 23.5,-13.3c4.3,0 9,0.5 14.3,1.5l-2.3,13.3c-3.2,-0.6 -6.2,-0.8 -9.1,-0.8c-4.9,0 -8.3,1.1 -10.2,3.4c-1.7,2 -2.5,5.6 -2.5,10.7l0,8.3l17.6,0l0,12l-17.6,0l0,78.2l-15.3,0z" fill="#FFFFFF"/>
    <path id="svg_25" d="m714.4,176.5l0,-78.2l-13.5,0l0,-12l13.5,0l0,-9.5c0,-6.1 0.5,-10.6 1.6,-13.6c3.3,-8.9 11.1,-13.3 23.5,-13.3c4.3,0 9,0.5 14.3,1.5l-2.3,13.3c-3.2,-0.6 -6.2,-0.8 -9.1,-0.8c-4.9,0 -8.3,1.1 -10.2,3.4c-1.7,2 -2.5,5.6 -2.5,10.7l0,8.3l17.6,0l0,12l-17.6,0l0,78.2l-15.3,0z" fill="#FFFFFF"/>
    <path id="svg_26" d="m759.2,69.5l0,-17.5l15.3,0l0,17.5l-15.3,0zm0,107l0,-90.2l15.3,0l0,90.2l-15.3,0z" fill="#FFFFFF"/>
    <path id="svg_27" d="m856.5,143.5l15,2c-1.6,10.1 -5.6,18.1 -12.2,24c-6.7,6.1 -15.2,9.2 -25.3,9.2c-13.5,0 -23.9,-4.5 -31.2,-13.6c-6.6,-8.3 -9.8,-19.4 -9.8,-33.2c0,-20.8 6.5,-34.8 19.5,-42c6.6,-3.6 13.8,-5.5 21.6,-5.5c20.3,0 32.3,9.5 35.9,28.5l-14.8,2.3c-2.9,-12.1 -9.8,-18.2 -20.6,-18.2c-17.4,0 -26.1,11.5 -26.1,34.5c0,23.1 8.4,34.7 25.2,34.7c13.2,-0.2 20.7,-7.7 22.8,-22.7z" fill="#FFFFFF"/>
    <path id="svg_28" d="m884.8,69.5l0,-17.5l15.3,0l0,17.5l-15.3,0zm0,107l0,-90.2l15.3,0l0,90.2l-15.3,0z" fill="#FFFFFF"/>
    <path id="svg_29" d="m982.2,165.3c-10.3,8.8 -21.4,13.2 -33.3,13.2c-8.8,0 -16,-2.1 -21.5,-6.2c-6.2,-4.6 -9.3,-11.1 -9.3,-19.6c0,-9 3.6,-15.9 10.9,-20.9c3.3,-2.3 7,-3.9 11.1,-5c2.9,-0.8 7.4,-1.6 13.6,-2.4c12.4,-1.5 21.5,-3.3 27.3,-5.4c0.1,-2.1 0.1,-3.4 0.1,-4c0,-6.2 -1.4,-10.6 -4.3,-13.1c-3.9,-3.5 -9.7,-5.2 -17.5,-5.2c-6.9,0 -12.1,1.2 -15.5,3.5c-3.6,2.6 -6.3,7.2 -8,13.8l-15.1,-2.1c2.7,-12.5 9.5,-20.7 20.3,-24.6c5.9,-2.1 12.7,-3.1 20.5,-3.1c14.3,0 24.1,3.2 29.3,9.5c2.3,2.8 3.9,6.2 4.7,10.4c0.5,2.5 0.8,7.2 0.8,14.2l0,20.4c0,12 0,18.4 0.1,19.2c0.5,7.5 2.1,13.7 4.9,18.5l-15.9,0c-1.7,-3.1 -2.7,-6.8 -3.2,-11.1zm-1.2,-34.1c-5.6,2.3 -13.9,4.2 -25.1,5.9c-5.1,0.7 -8.6,1.3 -10.7,2c-4.1,1.3 -7,3.3 -8.7,6c-1.5,2.1 -2.2,4.5 -2.2,7.2c0,4.8 1.9,8.4 5.8,10.9c3.3,2.2 7.5,3.3 12.5,3.3c12.6,0 21.3,-4.8 26,-14.4c1.6,-3.5 2.5,-8.5 2.5,-15.2l0,-5.7l-0.1,0z" fill="#FFFFFF"/>
    <path id="svg_30" d="m1019.7,176.5l0,-124.5l15.3,0l0,124.4l-15.3,0l0,0.1z" fill="#FFFFFF"/>
   </g>
   <g id="svg_31">
    <path id="svg_32" d="m350.4,243.2l8,-0.7c0.8,6.3 3.8,10.6 9.2,12.9c2.9,1.3 6.3,1.9 9.9,1.9c6.9,0 11.6,-1.8 14.2,-5.4c1.2,-1.7 1.9,-3.5 1.9,-5.5c0,-4.1 -2.5,-7.2 -7.6,-9.1c-2,-0.8 -6.1,-1.9 -12.2,-3.3c-5.2,-1.2 -9.2,-2.5 -11.9,-3.9c-6.1,-3.2 -9.2,-7.9 -9.2,-14c0,-3.5 1,-6.7 3,-9.5c2,-2.7 4.6,-4.7 7.9,-6.1c3.6,-1.5 7.5,-2.2 11.9,-2.2c10.1,0 17.1,3 21.1,9.1c2,3 3,6.4 3.1,10.2l-8.1,0.6c-0.9,-8.2 -6.1,-12.3 -15.8,-12.3c-3.9,0 -7.2,0.6 -9.8,1.9c-3.4,1.7 -5.2,4.2 -5.2,7.7c0,3.3 1.9,5.8 5.6,7.5c1.5,0.7 4.8,1.6 9.9,2.8c7,1.6 11.8,2.9 14.3,4.1c7.4,3.4 11,8.6 11,15.8c0,3.7 -1.1,7.1 -3.2,10.1c-2.1,2.9 -4.8,5.2 -8.2,6.8c-3.7,1.7 -7.8,2.5 -12.5,2.5c-11.5,0 -19.5,-3.4 -24,-10.3c-2,-3.4 -3.2,-7.3 -3.3,-11.6z" fill="#FFFFFF"/>
    <path id="svg_33" d="m443.1,264l0,-6.9c-3.6,5.3 -8.6,7.9 -14.8,7.9c-6,0 -10.4,-1.9 -13,-5.6c-1.2,-1.6 -2,-3.6 -2.4,-5.9c-0.3,-1.6 -0.5,-4.1 -0.5,-7.4l0,-29l7.9,0l0,26c0,4.2 0.2,7 0.5,8.4c1,4.5 4.1,6.7 9.2,6.7c2.4,0 4.6,-0.6 6.6,-1.8c2.2,-1.2 3.7,-2.9 4.5,-5c0.9,-2.1 1.3,-5.2 1.3,-9.2l0,-25.1l7.9,0l0,46.8l-7.2,0l0,0.1z" fill="#FFFFFF"/>
    <path id="svg_34" d="m462.6,264l0,-46.8l7.1,0l0,6.6c3.3,-5.1 8,-7.6 14.2,-7.6c6.9,0 11.3,2.7 13.2,8.2c3.7,-5.4 8.5,-8.2 14.4,-8.2c9.7,0 14.5,5.2 14.5,15.7l0,32.1l-7.9,0l0,-29.5c0,-5.3 -1.2,-8.7 -3.5,-10.2c-1.4,-0.8 -3,-1.3 -4.8,-1.3c-7.6,0 -11.5,4.6 -11.5,13.8l0,27.2l-7.9,0l0,-30.4c0,-7.1 -2.8,-10.6 -8.3,-10.6c-5.1,0 -8.6,2.3 -10.3,6.9c-0.9,2.3 -1.3,5.6 -1.3,9.8l0,24.3l-7.9,0z" fill="#FFFFFF"/>
    <path id="svg_35" d="m537.8,264l0,-46.8l7.1,0l0,6.6c3.3,-5.1 8,-7.6 14.2,-7.6c6.9,0 11.3,2.7 13.2,8.2c3.7,-5.4 8.5,-8.2 14.4,-8.2c9.7,0 14.5,5.2 14.5,15.7l0,32.1l-7.9,0l0,-29.5c0,-5.3 -1.2,-8.7 -3.5,-10.2c-1.4,-0.8 -3,-1.3 -4.8,-1.3c-7.6,0 -11.5,4.6 -11.5,13.8l0,27.2l-7.9,0l0,-30.4c0,-7.1 -2.8,-10.6 -8.3,-10.6c-5.1,0 -8.5,2.3 -10.3,6.9c-0.9,2.3 -1.3,5.6 -1.3,9.8l0,24.3l-7.9,0z" fill="#FFFFFF"/>
    <path id="svg_36" d="m613,208.4l0,-9.1l7.9,0l0,9.1l-7.9,0zm0,55.6l0,-46.8l7.9,0l0,46.8l-7.9,0z" fill="#FFFFFF"/>
    <path id="svg_37" d="m650.3,256.9l1.2,7c-2.3,0.5 -4.3,0.7 -6,0.7c-5.3,0 -8.6,-1.7 -10.1,-5c-0.7,-1.5 -1,-4.6 -1,-9.3l0,-26.9l-5.8,0l0,-6.2l5.8,0l0,-11.6l7.9,-4.8l0,16.3l8,0l0,6.2l-8,0l0,27.4c0,2.3 0.2,3.9 0.6,4.6c0.6,1.2 1.9,1.8 3.9,1.8c0.9,0.1 2.1,0 3.5,-0.2z" fill="#FFFFFF"/>
    <path id="svg_38" d="m679.8,264l24.8,-64.6l9.2,0l26.4,64.6l-9.7,0l-7.5,-19.6l-27,0l-7.1,19.6l-9.1,0zm18.6,-26.6l21.9,0l-6.7,-17.8c-2.1,-5.5 -3.6,-10 -4.6,-13.4c-0.8,4.3 -2,8.4 -3.5,12.3l-7.1,18.9z" fill="#FFFFFF"/>
    <path id="svg_39" d="m776.5,246.8l7.8,1c-0.8,5.2 -2.9,9.4 -6.3,12.4c-3.5,3.2 -7.9,4.7 -13.1,4.7c-7,0 -12.4,-2.3 -16.2,-7c-3.4,-4.3 -5.1,-10.1 -5.1,-17.2c0,-10.8 3.4,-18 10.1,-21.8c3.4,-1.9 7.2,-2.8 11.2,-2.8c10.5,0 16.8,4.9 18.6,14.8l-7.7,1.2c-1.5,-6.3 -5.1,-9.4 -10.7,-9.4c-9,0 -13.5,6 -13.5,17.9c0,12 4.4,18 13.1,18c6.8,-0.1 10.8,-4 11.8,-11.8z" fill="#FFFFFF"/>
    <path id="svg_40" d="m808.5,256.9l1.2,7c-2.3,0.5 -4.3,0.7 -6,0.7c-5.3,0 -8.6,-1.7 -10.1,-5c-0.7,-1.5 -1,-4.6 -1,-9.3l0,-26.9l-5.8,0l0,-6.2l5.8,0l0,-11.6l7.9,-4.8l0,16.3l8,0l0,6.2l-8,0l0,27.4c0,2.3 0.2,3.9 0.6,4.6c0.6,1.2 1.9,1.8 3.9,1.8c0.9,0.1 2.1,0 3.5,-0.2z" fill="#FFFFFF"/>
    <path id="svg_41" d="m816.2,208.4l0,-9.1l7.9,0l0,9.1l-7.9,0zm0,55.6l0,-46.8l7.9,0l0,46.8l-7.9,0z" fill="#FFFFFF"/>
    <path id="svg_42" d="m849.2,264l-17.8,-46.8l8.4,0l10.1,28c1.1,3 2.1,6.2 3,9.4c0.7,-2.4 1.7,-5.4 2.9,-8.9l10.4,-28.5l8.2,0l-17.7,46.8l-7.5,0z" fill="#FFFFFF"/>
    <path id="svg_43" d="m881.4,208.4l0,-9.1l7.9,0l0,9.1l-7.9,0zm0,55.6l0,-46.8l7.9,0l0,46.8l-7.9,0z" fill="#FFFFFF"/>
    <path id="svg_44" d="m918.7,256.9l1.2,7c-2.3,0.5 -4.3,0.7 -6,0.7c-5.3,0 -8.6,-1.7 -10.1,-5c-0.7,-1.5 -1,-4.6 -1,-9.3l0,-26.9l-5.8,0l0,-6.2l5.8,0l0,-11.6l7.9,-4.8l0,16.3l8,0l0,6.2l-8,0l0,27.4c0,2.3 0.2,3.9 0.6,4.6c0.6,1.2 1.9,1.8 3.9,1.8c1,0.1 2.1,0 3.5,-0.2z" fill="#FFFFFF"/>
    <path id="svg_45" d="m926.5,208.4l0,-9.1l7.9,0l0,9.1l-7.9,0zm0,55.6l0,-46.8l7.9,0l0,46.8l-7.9,0z" fill="#FFFFFF"/>
    <path id="svg_46" d="m978.6,248.9l8.1,1c-2.7,10.1 -9.6,15.1 -20.6,15.1c-7.2,0 -12.7,-2.3 -16.7,-6.8c-3.8,-4.3 -5.6,-10.1 -5.6,-17.3c0,-7.2 1.8,-13.1 5.4,-17.6c3.9,-4.8 9.4,-7.2 16.4,-7.2c6.9,0 12.2,2.4 16,7.1c3.5,4.4 5.3,10.1 5.3,17.1c0,0.5 0,1.2 0,2.2l-34.9,0c0.3,4.6 1.5,8.3 3.8,11.2c2.5,3.2 6,4.8 10.4,4.8c5.9,0 10,-3.2 12.4,-9.6zm-26.2,-12.8l26.2,0c-0.4,-3.9 -1.4,-6.9 -3,-8.9c-2.5,-3 -5.8,-4.6 -9.8,-4.6c-3.9,0 -7,1.3 -9.5,3.9c-2.3,2.5 -3.6,5.7 -3.9,9.6z" fill="#FFFFFF"/>
    <path id="svg_47" d="m993.5,250l7.8,-1.2c0.9,6.5 5,9.7 12.1,9.7c2.8,0 5.2,-0.5 7.2,-1.6c2.4,-1.3 3.6,-3.3 3.6,-5.9c0,-1.8 -0.8,-3.2 -2.4,-4.2c-1,-0.7 -3.7,-1.6 -8.1,-2.7c-4.9,-1.2 -8.1,-2.1 -9.5,-2.6c-3.8,-1.5 -6.4,-3.3 -7.8,-5.6c-1.1,-1.9 -1.7,-4 -1.7,-6.3c0,-4.2 1.8,-7.7 5.3,-10.2c3,-2.2 7,-3.2 11.9,-3.2c7.7,0 12.9,2 15.8,5.9c1.3,1.8 2.2,4.2 2.7,7.2l-7.7,1c-0.7,-5.1 -4.2,-7.6 -10.2,-7.6c-6.7,0 -10.1,2 -10.1,6c0,2.2 1.3,3.9 4,4.9c0.8,0.3 3.1,1 7,2c5.2,1.4 8.3,2.3 9.2,2.6c3.7,1.4 6.3,3.1 7.8,5.2c1.2,1.8 1.9,4 1.9,6.8c0,6 -3,10.3 -9,12.9c-2.9,1.3 -6.2,2 -9.9,2c-11.5,-0.1 -18.1,-5.1 -19.9,-15.1z" fill="#FFFFFF"/>
   </g>
  </g>
 </g>
</svg>