<svg xmlns="http://www.w3.org/2000/svg" viewBox="0 0 419.5 595.3"><text transform="translate(84.314 547.73)" font-family="'Miriam'" font-size="53.041">Mentor Summit</text><circle fill="#FBBC05" cx="44.4" cy="532.5" r="22.6"/><path fill="#20A15D" d="M19.4 523.5c-1 2.9-1.6 5.9-1.6 9.2 0 3.2.6 6.4 1.6 9.2l-9.2-9.3 9.2-9.1zm50 18.3c1-2.9 1.6-5.9 1.6-9.2s-.6-6.4-1.6-9.2l9.2 9.2-9.2 9.2z"/><path fill="#FBBC05" d="M33.2 556.7H20.1v-13.1c2.7 5.9 7.3 10.5 13.1 13.1zm35.4-48.4v13.1c-2.7-5.7-7.2-10.5-13.1-13.1h13.1z"/><path d="M20.1 508.3h13.1c-5.7 2.7-10.5 7.2-13.1 13.1v-13.1zm48.5 35.6V557h-13c5.7-2.9 10.3-7.5 13-13.1z" fill="#6285C4"/><g fill="#E0533F"><path d="M44.4 498.3l9.2 9.2c-2.9-1-5.9-1.6-9.2-1.6-3.2 0-6.4.6-9.2 1.6l9.2-9.2zm0 60.9c3.2 0 6.4-.6 9.2-1.6l-9.2 9.2-9.2-9.2c2.8 1.1 5.9 1.6 9.2 1.6z"/><path d="M44.4 505.8c-14.8 0-26.9 12.1-26.9 26.9 0 14.8 12.1 26.9 26.9 26.9s26.9-12.1 26.9-26.9c0-14.8-12.2-26.9-26.9-26.9zm0 51.6c-13.6 0-24.8-11-24.8-24.8 0-13.6 11-24.8 24.8-24.8s24.7 11.1 24.7 24.8c0 13.8-11.1 24.8-24.7 24.8z"/></g><path d="M41.1 541.8h2.6c0-.6.2-1 .3-1.5 1.2-5.6 2.6-11.1 3.8-16.8h-2.5c-1.5 6-2.8 12.2-4.2 18.3zM31 533.2c2.7 2.1 5.3 4.2 8.1 6.3v-3c-1.6-1.2-3.2-2.6-4.9-3.8 1.6-1.3 3.2-2.6 4.9-3.8v-3c-2.7 2.1-5.3 4.2-8 6.2-.1.3-.1.6-.1 1.1zm26.5-1.3c-2.6-1.9-5.2-4-7.8-6v3c1.6 1.2 3.2 2.5 4.9 3.8-1.6 1.2-3.2 2.5-4.9 3.7v3c2.7-2.1 5.3-4.1 8-6.2 0-.6.2-1-.2-1.3z" fill="#FFF"/></svg>